<svg width="30" height="34" viewBox="0 0 30 34" fill="none" xmlns="http://www.w3.org/2000/svg">
<path d="M30 30.3333C30 31.2174 29.6488 32.0652 29.0237 32.6903C28.3986 33.3155 27.5507 33.6666 26.6667 33.6666H3.33333C2.44928 33.6666 1.60143 33.3155 0.976311 32.6903C0.351189 32.0652 0 31.2174 0 30.3333C0.016529 27.2969 1.069 24.357 2.98333 22C3.51007 21.3557 4.25875 20.9318 5.0822 20.8115C5.90566 20.6912 6.74432 20.8833 7.43333 21.35C9.66293 22.8647 12.2962 23.6746 14.9917 23.6746C17.6871 23.6746 20.3204 22.8647 22.55 21.35C23.2404 20.8784 24.0828 20.6835 24.9101 20.8039C25.7374 20.9243 26.4893 21.3512 27.0167 22C28.931 24.357 29.9835 27.2969 30 30.3333ZM15 20.3333C16.9778 20.3333 18.9112 19.7468 20.5557 18.648C22.2002 17.5492 23.4819 15.9874 24.2388 14.1602C24.9957 12.3329 25.1937 10.3222 24.8079 8.38241C24.422 6.4426 23.4696 4.66077 22.0711 3.26225C20.6725 1.86372 18.8907 0.911317 16.9509 0.525465C15.0111 0.139612 13.0004 0.337646 11.1732 1.09452C9.3459 1.8514 7.78412 3.13312 6.6853 4.77762C5.58649 6.42211 5 8.3555 5 10.3333C5 12.9855 6.05357 15.529 7.92893 17.4044C9.8043 19.2797 12.3478 20.3333 15 20.3333Z" fill="#AEAEAE"/>
</svg>
