<svg width="22" height="17" viewBox="0 0 22 17" fill="none" xmlns="http://www.w3.org/2000/svg">
<path d="M7.79153 14.1666C7.40053 14.1666 7.08319 14.484 7.08319 14.875C7.08319 15.266 7.40053 15.5833 7.79153 15.5833C8.18254 15.5833 8.49988 15.266 8.49988 14.875C8.49988 14.484 8.18254 14.1666 7.79153 14.1666Z" fill="#F4E0E0"/>
<path d="M16.9998 14.1666C16.6088 14.1666 16.2915 14.484 16.2915 14.875C16.2915 15.266 16.6088 15.5833 16.9998 15.5833C17.3909 15.5833 17.7082 15.266 17.7082 14.875C17.7082 14.484 17.3909 14.1666 16.9998 14.1666Z" fill="#F4E0E0"/>
<path d="M10.6249 8.14584H5.66659C5.47111 8.14584 5.31244 8.30451 5.31244 8.49999C5.31244 8.69548 5.47111 8.85415 5.66659 8.85415H10.6249C10.8204 8.85415 10.9791 8.69548 10.9791 8.49999C10.9791 8.30451 10.8204 8.14584 10.6249 8.14584Z" fill="#F4E0E0"/>
<path d="M20.9138 10.9791H16.033C15.3945 10.9791 14.8749 10.4596 14.8749 9.82102V8.14581C14.8749 7.95033 15.0336 7.79166 15.2291 7.79166C15.4246 7.79166 15.5832 7.95033 15.5832 8.14581V9.82102C15.5832 10.0689 15.7851 10.2708 16.033 10.2708H19.4015L18.5402 6.82549C18.4219 6.35198 17.9979 6.02082 17.5092 6.02082H14.1665V4.95832C14.1665 4.56769 13.8489 4.24998 13.4582 4.24998H7.77356C7.78419 4.1331 7.79162 4.01552 7.79162 3.89583C7.79162 1.7478 6.04381 0 3.89579 0C1.7478 4.15037e-05 0 1.74785 0 3.89587C0 5.92453 1.55905 7.59406 3.54164 7.7736V10.2708V14.5208C3.54164 14.9115 3.85931 15.2292 4.24998 15.2292H5.6985C5.86813 16.2325 6.74082 17 7.79162 17C8.84241 17 9.7151 16.2325 9.88473 15.2292H14.9068C15.0764 16.2325 15.9491 17 16.9999 17C18.0507 17 18.9234 16.2325 19.093 15.2292H20.5416C20.9322 15.2292 21.2499 14.9115 21.2499 14.5208V11.5731C21.2499 11.3248 21.1185 11.107 20.9138 10.9791ZM3.83631 5.86323C3.7775 5.95142 3.68188 6.00878 3.57671 6.01907C3.56467 6.02049 3.55334 6.02086 3.54164 6.02086C3.44813 6.02086 3.35782 5.98405 3.29124 5.9171L1.8746 4.50045C1.7361 4.36196 1.7361 4.13813 1.8746 3.99967C2.0131 3.86121 2.23693 3.86121 2.37538 3.99967L3.48677 5.11068L5.37199 2.28266C5.48073 2.12009 5.69995 2.07548 5.86323 2.18455C6.0258 2.29291 6.06971 2.51284 5.96134 2.67579L3.83631 5.86323ZM7.79162 16.2916C7.01031 16.2916 6.37497 15.6562 6.37497 14.875C6.37497 14.0937 7.01035 13.4583 7.79162 13.4583C8.57288 13.4583 9.20826 14.0937 9.20826 14.875C9.2083 15.6563 8.57292 16.2916 7.79162 16.2916ZM13.4583 6.37501V6.73024C13.4583 8.48726 12.0289 9.91665 10.2719 9.91665H4.24998V7.77535C4.25708 7.77464 4.2638 7.77323 4.27086 7.77252C4.30593 7.76933 4.34029 7.76331 4.37499 7.75908C4.45505 7.74916 4.53474 7.73745 4.61368 7.72259C4.66257 7.71338 4.71071 7.70313 4.7589 7.69213C4.82227 7.6776 4.88499 7.66096 4.94695 7.64361C4.99829 7.62909 5.04967 7.61527 5.09993 7.599C5.16406 7.57812 5.22673 7.55367 5.2894 7.52956C5.37651 7.4959 5.46189 7.45942 5.54581 7.41978C5.59291 7.39783 5.64002 7.3762 5.68572 7.35251C5.74025 7.32416 5.79305 7.29407 5.8458 7.26327C5.89041 7.23742 5.93432 7.21052 5.97753 7.18321C6.02713 7.15171 6.07668 7.12017 6.12449 7.08651C6.17621 7.0504 6.22614 7.01176 6.27607 6.97316C6.32529 6.9349 6.37418 6.89667 6.42129 6.85666C6.46981 6.81524 6.51729 6.77274 6.56364 6.72916H11.3332C11.5287 6.72916 11.6873 6.57049 11.6873 6.37501C11.6873 6.17953 11.5287 6.02086 11.3332 6.02086H7.1598C7.21575 5.93549 7.26784 5.84733 7.31739 5.75702C7.32271 5.7471 7.32731 5.73685 7.33263 5.72656C7.38152 5.63517 7.42684 5.54099 7.46863 5.445C7.48067 5.41702 7.492 5.38867 7.5037 5.36C7.53699 5.27852 7.56745 5.19531 7.5951 5.11068C7.60535 5.07989 7.61597 5.04905 7.62519 5.01788C7.6312 4.99804 7.63901 4.97858 7.64465 4.95836H13.4583V6.37501ZM15.2291 12.3958C15.0336 12.3958 14.8749 12.2372 14.8749 12.0417C14.8749 11.8462 15.0336 11.6875 15.2291 11.6875H15.9374C16.1329 11.6875 16.2916 11.8462 16.2916 12.0417C16.2916 12.2372 16.1329 12.3958 15.9374 12.3958H15.2291ZM16.9999 16.2916C16.2186 16.2916 15.5833 15.6562 15.5833 14.875C15.5833 14.0937 16.2187 13.4583 16.9999 13.4583C17.7812 13.4583 18.4166 14.0937 18.4166 14.875C18.4166 15.6563 17.7812 16.2916 16.9999 16.2916Z" fill="#F4E0E0"/>
</svg>
