<svg width="30" height="31" viewBox="0 0 30 31" fill="none" xmlns="http://www.w3.org/2000/svg">
<path d="M0 7.44649C0 5.43863 -1.08654e-07 4.43471 0.323283 3.6411C0.767739 2.55006 1.63344 1.68437 2.72447 1.23991C3.51808 0.916626 4.522 0.916626 6.52986 0.916626C8.53771 0.916626 9.54164 0.916626 10.3352 1.23991C11.4263 1.68437 12.292 2.55006 12.7365 3.6411C13.0597 4.43471 13.0597 5.43863 13.0597 7.44649C13.0597 9.45434 13.0597 10.4583 12.7365 11.2519C12.292 12.3429 11.4263 13.2086 10.3352 13.6531C9.54164 13.9763 8.53771 13.9763 6.52986 13.9763C4.522 13.9763 3.51808 13.9763 2.72447 13.6531C1.63344 13.2086 0.767739 12.3429 0.323283 11.2519C-1.08654e-07 10.4583 0 9.45434 0 7.44649Z" fill="#AEAEAE"/>
<path d="M0 23.5535C0 21.5456 -1.08654e-07 20.5417 0.323283 19.7481C0.767739 18.6571 1.63344 17.7913 2.72447 17.3469C3.51808 17.0236 4.522 17.0236 6.52986 17.0236C8.53771 17.0236 9.54164 17.0236 10.3352 17.3469C11.4263 17.7913 12.292 18.6571 12.7365 19.7481C13.0597 20.5417 13.0597 21.5456 13.0597 23.5535C13.0597 25.5613 13.0597 26.5652 12.7365 27.3588C12.292 28.45 11.4263 29.3156 10.3352 29.76C9.54164 30.0833 8.53771 30.0833 6.52986 30.0833C4.522 30.0833 3.51808 30.0833 2.72447 29.76C1.63344 29.3156 0.767739 28.45 0.323283 27.3588C-1.08654e-07 26.5652 0 25.5613 0 23.5535Z" fill="#AEAEAE"/>
<path d="M16.1072 23.5535C16.1072 21.5456 16.1072 20.5417 16.4305 19.7481C16.875 18.6571 17.7407 17.7913 18.8316 17.3469C19.6253 17.0236 20.6292 17.0236 22.637 17.0236C24.645 17.0236 25.6489 17.0236 26.4424 17.3469C27.5335 17.7913 28.3992 18.6571 28.8437 19.7481C29.167 20.5417 29.167 21.5456 29.167 23.5535C29.167 25.5613 29.167 26.5652 28.8437 27.3588C28.3992 28.45 27.5335 29.3156 26.4424 29.76C25.6489 30.0833 24.645 30.0833 22.637 30.0833C20.6292 30.0833 19.6253 30.0833 18.8316 29.76C17.7407 29.3156 16.875 28.45 16.4305 27.3588C16.1072 26.5652 16.1072 25.5613 16.1072 23.5535Z" fill="#AEAEAE"/>
<path fill-rule="evenodd" clip-rule="evenodd" d="M21.5432 11.8215C21.5432 12.4256 22.0328 12.9153 22.637 12.9153C23.241 12.9153 23.7307 12.4256 23.7307 11.8215V8.54028H27.012C27.616 8.54028 28.1057 8.05059 28.1057 7.44653C28.1057 6.84248 27.616 6.35278 27.012 6.35278H23.7307V3.07153C23.7307 2.46748 23.241 1.97778 22.637 1.97778C22.0328 1.97778 21.5432 2.46748 21.5432 3.07153V6.35278H18.262C17.6578 6.35278 17.1682 6.84248 17.1682 7.44653C17.1682 8.05059 17.6578 8.54028 18.262 8.54028H21.5432V11.8215Z" fill="#AEAEAE"/>
</svg>
