<svg width="19" height="18" viewBox="0 0 19 18" fill="none" xmlns="http://www.w3.org/2000/svg">
<path d="M11.5236 11.6608L11.163 12.0204C11.163 12.0204 10.306 12.8752 7.9666 10.5419C5.62724 8.2086 6.48428 7.3538 6.48428 7.3538L6.71135 7.12733C7.2707 6.56943 7.32343 5.67373 6.83542 5.01982L5.83714 3.68221C5.23312 2.87287 4.06595 2.76596 3.37363 3.45648L2.13103 4.69585C1.78774 5.03824 1.5577 5.48209 1.5856 5.97445C1.65697 7.23409 2.22512 9.94425 5.39547 13.1064C8.75747 16.4596 11.912 16.5929 13.202 16.4723C13.6101 16.4341 13.9649 16.2257 14.2508 15.9405L15.3755 14.8188C16.1346 14.0617 15.9206 12.7636 14.9493 12.234L13.4368 11.4092C12.799 11.0614 12.0221 11.1636 11.5236 11.6608Z" fill="#F4E0E0"/>
<path d="M13.4583 9C15.6444 9 17.4167 7.32106 17.4167 5.25C17.4167 3.17893 15.6444 1.5 13.4583 1.5C11.2722 1.5 9.5 3.17893 9.5 5.25C9.5 5.84988 9.64867 6.41686 9.91301 6.91968C9.98331 7.0533 10.0067 7.20602 9.96598 7.35023L9.73022 8.18497C9.62785 8.54737 9.97777 8.87887 10.3603 8.7819L11.2414 8.55855C11.3937 8.52 11.5548 8.54212 11.6959 8.60872C12.2267 8.85915 12.8252 9 13.4583 9Z" fill="#F4E0E0"/>
</svg>
