<svg width="24" height="16" viewBox="0 0 24 16" fill="none" xmlns="http://www.w3.org/2000/svg">
<path d="M8.84308 0.706329H22.09C22.4536 0.706329 22.7182 1.04799 22.6189 1.40064L21.0871 7.2636C21.0209 7.50608 20.8005 7.6714 20.5581 7.6714H8.69981C8.0606 7.6714 7.53162 8.1894 7.53162 8.83967C7.53162 9.47885 8.04958 10.0078 8.69981 10.0078H21.1311" stroke="white" stroke-miterlimit="10" stroke-linecap="round" stroke-linejoin="round"/>
<path d="M7.5426 5.42322L6.38544 1.1141C6.31931 0.871641 6.09888 0.706329 5.85643 0.706329H2.50615C1.87797 0.706329 1.35999 1.21327 1.35999 1.85248C1.35999 2.48067 1.86695 2.99864 2.50615 2.99864H5.22827" stroke="white" stroke-miterlimit="10" stroke-linecap="round" stroke-linejoin="round"/>
<path d="M10.0374 15.2937C10.7131 15.2937 11.2608 14.746 11.2608 14.0703C11.2608 13.3947 10.7131 12.847 10.0374 12.847C9.36185 12.847 8.81418 13.3947 8.81418 14.0703C8.81418 14.746 9.36185 15.2937 10.0374 15.2937Z" fill="white"/>
<path d="M17.9943 15.2937C18.6699 15.2937 19.2177 14.746 19.2177 14.0703C19.2177 13.3947 18.6699 12.847 17.9943 12.847C17.3187 12.847 16.7711 13.3947 16.7711 14.0703C16.7711 14.746 17.3187 15.2937 17.9943 15.2937Z" fill="white"/>
</svg>
